<?xml version="1.0" encoding="utf-8"?>
<!-- Generator: Adobe Illustrator 19.2.1, SVG Export Plug-In . SVG Version: 6.00 Build 0)  -->
<svg version="1.1" id="layer" xmlns="http://www.w3.org/2000/svg" xmlns:xlink="http://www.w3.org/1999/xlink" x="0px" y="0px"
	 viewBox="0 0 652 652" style="enable-background:new 0 0 652 652;" xml:space="preserve">
<style type="text/css">
	.st0{fill:#D4003B;}
</style>
<g>
	<path class="st0" d="M138.9,208.1c58.7,0,106.8,44.6,111.5,101.2c-1.8,2.4-4.4,3.6-7.2,4.3c-10,2.1-13-6.5-21.3-12
		c-8.3-5.5-15.9-7.6-23.6-15.3c-3.1-3.1-3.9-8.3-6.9-11.6c-4.1-4.4-6.6-5.5-12.1-7.7c-9.8-3.8-18.1-6.6-26.2-13.3
		c-1.4-1.1-4.6-2.6-7.6-3.1c-1.3-0.3-1.9-0.1-2.3,0.4c-1.2,1.6-2.3,3.4-3.4,5.2c-0.3,0.5-1.3,1.9-2.1,2.6c-1.6,1.4-3.5,3.2-5,4.1
		c-8.1,5-18.9,9.2-23.5,17.6c-0.9,1.5-9.7,5.7-11.8,7.3c-3.2,2.7-6.4,5.3-9.7,7.7c-3.1,2.3-7.4,5.9-10.6,8.3
		c-1.7-0.6-3.5-1.2-5.1-1.5c-3.8-0.8-7-3.7-10.3-5.7c-4.2-2.7-3.9-3-5.2-3.8c-1.1-0.6-1.7-1-2.2-1.2c-3.1-1.9-3.3,0-7.7,2.7
		c-3.7,2.3-8,6.1-11.2,9.1c-2.5,2.4-5.1,4.9-7.8,7.5C31,253.6,79.5,208.1,138.9,208.1 M48.3,383.1c-8.6-11.6-14.9-25-18.4-39.6
		c1,0.2,2.2,0.6,4.2,1.2c6.6,2.1,19,6.2,27.9,2.1c5.7-2.7,15.6-4.8,19.4-6.3c3.6-1.5,11.2,1.9,2.2-4.1h0c-0.1-0.1-0.3-0.1-0.5-0.2
		c-0.3-0.1-0.6-0.2-0.9-0.3c-0.9-0.2-8.1,1.2-9.6,1c-0.5-0.1-1-0.3-1.4-0.6c-3.9-2.1,12.7-15.1,13.3-18.3c-4.8,0.5-8.7,3.5-13,5.4
		c-5,2.2-10.5,2.3-15.9,2.3c-6.2,0-10.9,4.8-16.4,7c-2.8,1.2-7.5,2.3-10.6,4.3c-0.2-1.3-0.4-2.7-0.6-4c0.1-2.3,0.3-5.1,0.9-8.4
		c1.2-7.1,4.1-12.5,10.4-21c0,0,6.2-7.4,9.8-9.8c1.4-1,2.9-2.3,4.4-1.4c1.6,1-0.4,7.1,3.8,8.1c2.5,0.6,0.3,4.8,1.2,7.3
		c0.9,2.6-10.5,12.6-7.5,13.8c1.7,0.7,9.3-3.1,13.3-4.4c3.5-1.1,7.3-1.2,11.2-4.8c4-3.7,8-5.9,8-5.9c3.2-2.7,6.4-5.5,9.6-8.3
		c3.1-2.8,6.1-5.6,9.1-8.4c1.9-1.8,10.5-6.6,11.2-8.2c4-8.7,14.4-13.7,22.2-19.2c1.4-1,3-3.1,3.9-4.3c0.9-1.2,1.8-3,2.3-3.6
		c1-1.1,1.2-2,2.3-2.5c0.5-0.2,2.2-0.2,2.9,0.6c2.6,2.7,6,5,6.1,7.8c0.2,4.4,12.4,8.1,15.2,11.5c1.1,1.4,1.8,2.7,2.3,4.1
		c-2.1-0.8-4.2-1.9-6.1-3.2c-1.2-0.9-4.1-0.7-5.6-0.9c-4.2-0.8-3.3,1.2-0.9,3.6c2.4,2.5,5.1,4.6,7.3,7.4c2.5,3.1,2.3,5.6,3,9.3
		c0.7,3.9,3.1,7.4,5,10.9c2,3.5,1.8,7.2,2.9,11c1.2,3.8,4.4,7,7.1,9.8c2.3,2.4,7.5,8.2,10.3,6.9c3-1.2,6.7,2.4,7.9,1.4
		c1.1-1-3-5.9-1.4-7.3c1.6-1.5,8.5,0.9,9.9,5.3c1.6,5.2,1.4,5.6,1.2,9.4c-0.2,2.5-1.1,4.4-2.8,6.2c-2.1,2.1-6.8,5.5-5.9,8.9
		c4.4-2.3,9.1-2.5,14-2.4c4.7,0.1,8.2-1.8,11.4-5.2c1.4-1.5,5.4-6.2,7.7-3.8c1.4,1.4-2.7,7.2,1.8,6c3-0.8,5.6-3.1,8.3-4.6
		c0.7-0.4,1.4-0.9,1.9-1.3c-3.5,14.8-10,28.4-18.9,40.2l3.3,2.7c15.7-20.1,25.1-45.4,25.1-72.9c0-65.4-53-118.5-118.4-118.5
		c-65.4,0-118.5,53-118.5,118.5c0,27.3,9.2,52.3,24.7,72.3L48.3,383.1z M96.5,383.3c-0.2,1.3-1.9,12.2-3.9,24.2
		c-3.5-0.8-7-2.1-11-4.3c-3.9-2.2-6.9-4.4-9.4-7c9.2-8,17.5-15.3,18.5-16.1c2.5-2.1,3.7-2.6,4.9-2C96.7,378.7,97,380,96.5,383.3
		 M103.3,365.6c0,0-0.3-0.2-0.6-0.4c-0.3-0.1-0.6-0.3-0.6-0.4c0,0.1,0,0.1,0,0.1c-5.6-3.1-11.1-2.9-17.4,1.7
		c-8.7,6.3-50.9,41.9-50.9,41.9L46,419c0,0,6.7-5.9,15-13.1c4.1,3.6,8.6,6.8,13.8,9.7c5.1,2.8,10.3,5,15.4,6.4
		c-1.7,10.9-3.2,19.8-3.2,19.8l15.2,4.8c0,0,8-54.6,8.8-65.3C111.6,373.5,108.8,368.7,103.3,365.6 M146.2,448.7v-77.8h-15.7v77.8
		H146.2z M194.4,403.2c-3.9,2.2-7.4,3.4-10.9,4.2c-1.9-12-3.6-22.9-3.8-24.2c-0.5-3.2-0.2-4.5,0.9-5.2c1.1-0.6,2.4-0.1,4.8,2
		c1.1,0.9,9.4,8.1,18.5,16.2C201.4,398.7,198.4,401,194.4,403.2 M174.1,364.9c0,0.1-0.3,0.2-0.6,0.4c-0.3,0.1-0.5,0.3-0.5,0.3
		c-5.6,3.1-8.4,7.9-7.8,15.6c0.8,10.9,8.7,65.4,8.7,65.4l15.2-4.8c0,0-1.4-8.9-3.1-19.7c5.2-1.6,10.4-3.7,15.5-6.5
		c5.1-2.8,9.7-6.1,13.7-9.7c8.3,7.2,15,13.2,15,13.2l12.1-10.3c0,0-42-35.8-50.8-42.1C185.2,362,179.7,361.9,174.1,364.9
		 M177.4,342.6c-2.7-5.4-12.4-1.2-17.3-5.7c-1.4-1.2-4.2-3.8-5.7-8.2c-1.4-4.2-3.5-7.6-7-10.3c-6.3-4.9-21.1-12.4-20.1-22.4
		c0.5-4.5,5.9-5.4,8.1-8.7c1.4-1.9,1.5-4.5,3.1-6.2c1.8-2-0.7-2-2.5-2.2c-3.7-0.1-6.5,3.9-9.6,5.6c-5.1,2.6-9.6,6.5-15.4,7.7
		c-1.7,0.4-10.2,3-4.6,4.4c3.8,1,8.1,0.7,11.3,3.4c4.1,3.5,7.4,8,11.5,11.5c2.1,1.8,4.1,3.4,5.8,5.6c1.9,2.5,1.7,5.4,3.1,8
		c1.4,2.5,4.1,0.3,5.9,1.7c5.6,4.6-2.2,6.9-4.2,9.1c-2.6,2.9-3.1,4.7-8,6.7c-2.1,0.9-15.9,2.6-17.6,3.8c-1.7,1.2-0.8,1.7-0.4,2.2
		c0.5,0.5,2.8,1.3,3.9,1.3c5.8,0.6,23.6,3.9,27.3-0.6c2.5-3.1,6.2-3.5,10.3-2.4c2.9,0.7,8.6,0.2,13.6-1.9
		C171.7,343.9,179.6,343.8,177.4,342.6"/>
	<path class="st0" d="M310.3,248.5c-1,0-1.8,0.8-1.8,1.8v3.1c0,1,0.9,1.9,1.8,1.9h7.4v37.5c0,1,0.8,1.8,1.9,1.8h4.3
		c1,0,1.9-0.8,1.9-1.8v-37.5h7.4c1,0,1.8-0.9,1.8-1.9v-3.1c0-1-0.8-1.8-1.8-1.8H310.3z M346,267.2v-16.9c0-1-0.9-1.8-1.9-1.8H340
		c-1.1,0-1.9,0.8-1.9,1.8v42.5c0,1,0.8,1.8,1.9,1.8h4.2c1,0,1.9-0.8,1.9-1.8V274H357v18.7c0,1,0.8,1.8,1.9,1.8h4.2
		c1,0,1.9-0.8,1.9-1.8v-42.5c0-1-0.9-1.8-1.9-1.8h-4.2c-1.1,0-1.9,0.8-1.9,1.8v16.9H346z M391.5,294.6c1,0,1.8-0.8,1.8-1.9v-3.1
		c0-1-0.8-1.9-1.8-1.9h-14.2v-14h12c1,0,1.8-0.9,1.8-1.9v-3c0-1-0.9-1.9-1.8-1.9h-12v-11.5h13.9c1,0,1.8-0.8,1.8-1.9v-3.2
		c0-1-0.9-1.8-1.8-1.8h-20c-1,0-1.9,0.8-1.9,1.8v42.5c0,1,0.9,1.8,1.9,1.8H391.5z M425.3,263.9c0,2.6-1.7,4.3-4.3,4.3h-6.4v-13.1
		h6.4c2.6,0,4.3,1.7,4.3,4.3V263.9z M421,274.8c2.6,0,4.5,1.7,4.5,4.3v13.7c0,1,0.9,1.8,1.9,1.8h4.2c1,0,1.9-0.8,1.9-1.8v-12.4
		c0-4.4-1.2-8.6-6.4-9.1c4.2-0.4,5.6-3.8,5.6-7.9v-6.5c0-4.5-3.2-8.4-8.2-8.4h-15.9c-1.1,0-1.9,0.8-1.9,1.8v42.5
		c0,1,0.9,1.8,1.9,1.8h4.2c1,0,1.9-0.8,1.9-1.8v-18H421z M459.3,294.6c1,0,1.9-0.8,1.9-1.9v-3.1c0-1-0.9-1.9-1.9-1.9H445v-14h12
		c1,0,1.8-0.9,1.8-1.9v-3c0-1-0.9-1.9-1.8-1.9h-12v-11.5H459c1,0,1.8-0.8,1.8-1.9v-3.2c0-1-0.9-1.8-1.8-1.8h-20.1
		c-1,0-1.9,0.8-1.9,1.8v42.5c0,1,0.9,1.8,1.9,1.8H459.3z M519.7,289.5c0-0.9-0.9-1.8-1.9-1.8h-12.1v-37.4c0-1-0.8-1.8-1.9-1.8h-4.2
		c-1,0-1.9,0.8-1.9,1.8v42.5c0,1,0.9,1.8,1.9,1.8h18.2c1,0,1.9-0.8,1.9-1.8V289.5z M554.4,289.5c0-0.9-0.9-1.8-1.9-1.8h-12.1v-37.4
		c0-1-0.9-1.8-1.9-1.8h-4.2c-1.1,0-1.9,0.8-1.9,1.8v42.5c0,1,0.8,1.8,1.9,1.8h18.2c1,0,1.9-0.8,1.9-1.8V289.5z M557.5,292.8
		c0,1,0.8,1.8,1.9,1.8h4.2c1,0,1.9-0.8,1.9-1.8v-42.5c0-1-0.9-1.8-1.9-1.8h-4.2c-1.1,0-1.9,0.8-1.9,1.8V292.8z M577.7,273.7h12
		c1,0,1.8-0.9,1.8-1.9v-3c0-1-0.9-1.9-1.8-1.9h-12v-11.5h13.9c1,0,1.8-0.8,1.8-1.9v-3.2c0-1-0.8-1.8-1.8-1.8h-20
		c-1.1,0-1.9,0.8-1.9,1.8v42.5c0,1,0.8,1.8,1.9,1.8h4.3c1,0,1.8-0.8,1.8-1.9V273.7z M618.6,294.6c1,0,1.8-0.8,1.8-1.9v-3.1
		c0-1-0.9-1.9-1.8-1.9h-14.2v-14h12c1,0,1.8-0.9,1.8-1.9v-3c0-1-0.9-1.9-1.8-1.9h-12v-11.5h13.9c1,0,1.8-0.8,1.8-1.9v-3.2
		c0-1-0.9-1.8-1.8-1.8h-20c-1.1,0-1.9,0.8-1.9,1.8v42.5c0,1,0.8,1.8,1.9,1.8H618.6z"/>
	<path class="st0" d="M327.4,318.3c0,1,0.9,1.8,1.9,1.8h4.1c1.1,0,1.9-0.8,1.9-1.8v-1.1c0-8.2-5.9-12.7-13.4-12.7
		s-13.4,4.5-13.4,12.7v23.4c0,8.1,5.9,12.7,13.4,12.7s13.4-4.6,13.4-12.7v-1.1c0-1-0.8-1.8-1.9-1.8h-4.1c-1.1,0-1.9,0.9-1.9,1.8v1.1
		c0,3.4-2.2,5.8-5.4,5.8c-3.3,0-5.5-2.4-5.5-5.8v-23.4c0-3.3,2.2-5.8,5.5-5.8c3.3,0,5.4,2.4,5.4,5.8V318.3z M357.9,340.7
		c0,3.4-2.1,5.8-5.5,5.8c-3.3,0-5.4-2.4-5.4-5.8v-23.4c0-3.4,2.1-5.8,5.4-5.8c3.3,0,5.5,2.4,5.5,5.8V340.7z M365.8,317.2
		c0-8.2-5.9-12.7-13.4-12.7s-13.4,4.5-13.4,12.7v23.4c0,8.1,5.9,12.7,13.4,12.7s13.4-4.6,13.4-12.7V317.2z M389.9,352.1
		c1,0,1.7-0.8,1.9-1.8l7.9-34.9v34.9c0,1,0.9,1.8,1.9,1.8h3.5c1.1,0,1.9-0.8,1.9-1.8v-42.5c0-0.9-0.9-1.8-1.9-1.8h-8.3
		c-1,0-1.7,0.9-1.9,1.8l-6.2,28.1l-6.2-28.1c-0.2-0.9-0.8-1.8-1.9-1.8h-8.3c-1,0-1.9,0.9-1.9,1.8v42.5c0,1,0.9,1.8,1.9,1.8h3.5
		c1.1,0,1.9-0.8,1.9-1.8v-34.9l7.9,34.9c0.2,1,0.8,1.8,1.9,1.8H389.9z M430.1,324.4c0,3.3-1.4,4.2-4,4.2h-5.9v-16h5.9
		c2.6,0,4,1,4,4.3V324.4z M420.1,335.3h10.6c4.4,0,7.4-3.1,7.4-7.6v-13.3c0-4.7-3.6-8.4-8.4-8.4H414c-1.1,0-1.9,0.9-1.9,1.8v42.5
		c0,1,0.8,1.8,1.9,1.8h4.2c1,0,1.9-0.8,1.9-1.8V335.3z M495.5,336.6L495.5,336.6l-12.7-28.8c-0.4-0.9-0.8-1.8-2.1-1.8h-5.3
		c-1.1,0-1.9,0.9-1.9,1.8v42.5c0,1,0.9,1.8,1.9,1.8h4.2c1,0,1.9-0.8,1.9-1.8v-28.8l12.7,28.8c0.4,0.9,0.8,1.8,2.1,1.8h5.3
		c1.1,0,1.9-0.8,1.9-1.8v-42.4c0-1-0.8-1.8-1.9-1.8h-4.2c-1.1,0-1.9,0.8-1.9,1.8V336.6z M520.2,352.1h4.3c1,0,1.9-0.8,1.9-1.8v-19.5
		l11.5-22.7c0.1-0.2,0.1-0.5,0.1-0.6c0-0.8-0.5-1.4-1.4-1.4h-4.1c-1.1,0-1.5,0.4-2.4,2l-7.7,15l-7.7-15c-0.9-1.7-1.3-2-2.4-2h-4.1
		c-0.9,0-1.4,0.6-1.4,1.4c0,0.1,0,0.4,0.1,0.6l11.5,22.7v19.5C518.3,351.3,519.2,352.1,520.2,352.1"/>
	<path class="st0" d="M474.4,278.2l4.7-21.6l4.8,21.6 M474.4,278.2h9.5H474.4z M474.4,278.2h9.5 M478.7,248.5c-4,0-5.6,2.5-6.1,4.4
		c-0.4,1.8-9.1,39.3-9.1,39.3c-0.1,0.5-0.2,1-0.2,1.1c0,0.7,0.6,1.4,1.4,1.4h4.8c0.8,0,1.2-0.6,1.4-1.5l1.9-8.2h12.5l2,8.2
		c0.2,0.8,0.6,1.5,1.4,1.5h4.8c0.9,0,1.4-0.6,1.4-1.4c0-0.1,0-0.6-0.2-1.1c0,0-8.6-37.5-9.1-39.3c-0.4-1.9-2.1-4.4-6.6-4.4
		c-4.5,0-6.1,2.5-6.6,4.4c-0.4,1.8-9.1,39.3-9.1,39.3c-0.1,0.5-0.2,1-0.2,1.1c0,0.7,0.6,1.4,1.4,1.4h4.8c0.8,0,1.2-0.6,1.4-1.5
		l1.9-8.2 M478.7,248.5c-4,0-5.6,2.5-6.1,4.4c-0.4,1.8-9.1,39.3-9.1,39.3c-0.1,0.5-0.2,1-0.2,1.1c0,0.7,0.6,1.4,1.4,1.4h4.8
		c0.8,0,1.2-0.6,1.4-1.5l1.9-8.2"/>
	<path class="st0" d="M449.6,335.7l4.7-21.6l4.7,21.6 M449.6,335.7h9.5H449.6z M449.6,335.7h9.5 M453.8,305.9c-4,0-5.7,2.5-6.1,4.4
		c-0.5,1.8-9.1,39.3-9.1,39.3c-0.1,0.6-0.2,1.1-0.2,1.1c0,0.7,0.6,1.4,1.4,1.4h4.8c0.8,0,1.2-0.6,1.4-1.4l1.9-8.2h12.5l1.9,8.2
		c0.2,0.8,0.7,1.4,1.5,1.4h4.8c0.9,0,1.4-0.6,1.4-1.4c0-0.1-0.1-0.6-0.2-1.1c0,0-8.6-37.4-9.1-39.3c-0.4-1.9-2.1-4.4-6.6-4.4
		c-4.5,0-6.1,2.5-6.6,4.4c-0.5,1.8-9.1,39.3-9.1,39.3c-0.1,0.6-0.2,1.1-0.2,1.1c0,0.7,0.6,1.4,1.4,1.4h4.8c0.8,0,1.2-0.6,1.4-1.4
		l1.9-8.2 M453.8,305.9c-4,0-5.7,2.5-6.1,4.4c-0.5,1.8-9.1,39.3-9.1,39.3c-0.1,0.6-0.2,1.1-0.2,1.1c0,0.7,0.6,1.4,1.4,1.4h4.8
		c0.8,0,1.2-0.6,1.4-1.4l1.9-8.2"/>
</g>
</svg>
