<?xml version="1.0" encoding="UTF-8"?>
<svg width="240px" height="135px" viewBox="0 0 240 135" version="1.1" xmlns="http://www.w3.org/2000/svg" xmlns:xlink="http://www.w3.org/1999/xlink">
    <!-- Generator: Sketch 51.3 (57544) - http://www.bohemiancoding.com/sketch -->
    <title>Artboard</title>
    <desc>Created with Sketch.</desc>
    <defs>
        <path d="M2.46036364,0.115227273 L0.155818182,24.9009091 C1.64774545,24.7295455 3.17512727,24.5936364 4.73229091,24.4946591 L2.46178182,0.115227273 L2.46036364,0.115227273 L2.46036364,0.115227273 Z" id="path-1"></path>
        <path d="M0.660340909,0.144772727 L3.0225,24.4665909 C4.90602273,24.3557955 6.82943182,24.29375 8.79420455,24.2893182 L8.80159091,0.144772727 L0.660340909,0.141818182 L0.660340909,0.144772727 L0.660340909,0.144772727 Z" id="path-3"></path>
        <path d="M0,0.115227273 L0.0115555556,29.5454545 C4.91111111,27.3531818 11.2912222,25.7193182 18.5105556,24.9009091 L20.8577778,0.115227273 L20.8577778,0.112272727 L0,0.115227273 L0,0.115227273 Z" id="path-5"></path>
        <path d="M0.00303896104,0.279204545 L0.00303896104,1.03704545 C0.539415584,1.13159091 2.46155844,1.67670455 2.46155844,3.00625 L2.46155844,24.3055682 L8.96949351,24.3055682 L8.96949351,0.279204545 L0.00303896104,0.279204545 L0.00303896104,0.279204545 Z" id="path-7"></path>
        <path d="M7.65982609,0.279204545 L7.65982609,1.03704545 C8.40509091,1.19806818 10.023668,1.66193182 9.36760474,3.16136364 L0.179841897,24.3055682 L5.03413439,24.3055682 L7.91160474,17.7139773 L18.0906561,17.7139773 L20.607004,24.3055682 L26.9906719,24.3055682 L17.8719684,0.279204545 L7.65982609,0.279204545 L7.65982609,0.279204545 Z M13.34283,5.27829545 L16.9511779,14.7298864 L9.21509881,14.7298864 L13.34283,5.27829545 L13.34283,5.27829545 Z" id="path-9"></path>
        <path d="M7.61802372,0.277727273 L7.61802372,0.279204545 L7.61802372,1.03704545 C8.3618498,1.19806818 9.98330435,1.66193182 9.32580237,3.16136364 L0.139478261,24.3055682 L4.99377075,24.3055682 L7.8669249,17.7139773 L18.0459763,17.7139773 L20.5637628,24.3055682 L26.9531858,24.3055682 L17.8272885,0.277727273 L7.61802372,0.277727273 L7.61802372,0.277727273 Z M13.3010277,5.27829545 L16.9093755,14.7298864 L9.17329644,14.7298864 L13.3010277,5.27829545 L13.3010277,5.27829545 Z" id="path-11"></path>
        <path d="M23.2585929,0.279204545 L16.113834,17.8971591 L9.31293281,0.279204545 L0.654624506,0.279204545 L0.654624506,1.03704545 C1.65454545,1.235 2.77675889,1.67670455 3.28894862,3.00625 L11.5084427,24.3055682 L18.123747,24.3055682 L27.8668617,0.279204545 L23.2585929,0.279204545 L23.2585929,0.279204545 Z" id="path-13"></path>
        <path d="M23.3425,0.279204545 L16.0063636,17.8971591 L9.02329545,0.279204545 L0.133068182,0.279204545 L0.133068182,1.03704545 C1.16125,1.235 2.31204545,1.67670455 2.83943182,3.00625 L11.2761364,24.3055682 L18.0701136,24.3055682 L28.0771591,0.279204545 L23.3425,0.279204545 L23.3425,0.279204545 Z" id="path-15"></path>
    </defs>
    <g id="Artboard" stroke="none" stroke-width="1" fill="none" fill-rule="evenodd">
        <g id="Logo" transform="translate(41.000000, 53.000000)">
            <g id="Group-3" transform="translate(18.000000, 0.000000)">
                <mask id="mask-2" fill="white">
                    <use xlink:href="#path-1"></use>
                </mask>
                <g id="Clip-2"></g>
                <polygon id="Fill-1" fill="#FFD400" mask="url(#mask-2)" points="-6.93509091 32.2872727 11.8246182 32.2872727 11.8246182 -7.27113636 -6.93509091 -7.27113636"></polygon>
            </g>
            <g id="Group-6" transform="translate(20.000000, 0.000000)">
                <mask id="mask-4" fill="white">
                    <use xlink:href="#path-3"></use>
                </mask>
                <g id="Clip-5"></g>
                <polygon id="Fill-4" fill="#66B24C" mask="url(#mask-4)" points="-6.72454545 31.8529545 16.1879545 31.8529545 16.1879545 -7.24454545 -6.72454545 -7.24454545"></polygon>
            </g>
            <g id="Group-9">
                <mask id="mask-6" fill="white">
                    <use xlink:href="#path-5"></use>
                </mask>
                <g id="Clip-8"></g>
                <polygon id="Fill-7" fill="#004FB6" mask="url(#mask-6)" points="-7.22222222 36.9318182 28.08 36.9318182 28.08 -7.27409091 -7.22222222 -7.27409091"></polygon>
            </g>
            <g id="Group-12" transform="translate(93.000000, 0.000000)">
                <mask id="mask-8" fill="white">
                    <use xlink:href="#path-7"></use>
                </mask>
                <g id="Clip-11"></g>
                <polygon id="Fill-10" fill="#004FB6" mask="url(#mask-8)" points="-7.59436364 31.6919318 16.5668961 31.6919318 16.5668961 -7.10863636 -7.59436364 -7.10863636"></polygon>
            </g>
            <g id="Group-15" transform="translate(36.000000, 0.000000)">
                <mask id="mask-10" fill="white">
                    <use xlink:href="#path-9"></use>
                </mask>
                <g id="Clip-14"></g>
                <polygon id="Fill-13" fill="#004FB6" mask="url(#mask-10)" points="-7.01527273 31.6919318 34.1843478 31.6919318 34.1843478 -7.10863636 -7.01527273 -7.10863636"></polygon>
            </g>
            <g id="Group-18" transform="translate(132.000000, 0.000000)">
                <mask id="mask-12" fill="white">
                    <use xlink:href="#path-11"></use>
                </mask>
                <g id="Clip-17"></g>
                <polygon id="Fill-16" fill="#004FB6" mask="url(#mask-12)" points="-7.05563636 31.6919318 34.1454229 31.6919318 34.1454229 -7.10863636 -7.05563636 -7.10863636"></polygon>
            </g>
            <g id="Group-21" transform="translate(105.000000, 0.000000)">
                <mask id="mask-14" fill="white">
                    <use xlink:href="#path-13"></use>
                </mask>
                <g id="Clip-20"></g>
                <polygon id="Fill-19" fill="#004FB6" mask="url(#mask-14)" points="-6.54049012 31.6919318 35.0605375 31.6919318 35.0605375 -7.10863636 -6.54049012 -7.10863636"></polygon>
            </g>
            <g id="Group-24" transform="translate(62.000000, 0.000000)">
                <mask id="mask-16" fill="white">
                    <use xlink:href="#path-15"></use>
                </mask>
                <g id="Clip-23"></g>
                <polygon id="Fill-22" fill="#004FB6" mask="url(#mask-16)" points="-7.25329545 31.6919318 35.4635227 31.6919318 35.4635227 -7.10863636 -7.25329545 -7.10863636"></polygon>
            </g>
        </g>
    </g>
</svg>