<?xml version="1.0" encoding="UTF-8"?>
<svg xmlns="http://www.w3.org/2000/svg" xmlns:xlink="http://www.w3.org/1999/xlink" width="372.57pt" height="179.55pt" viewBox="0 0 372.57 179.55" version="1.1">
<defs>
<clipPath id="clip1">
  <path d="M 343 72 L 372.570313 72 L 372.570313 109 L 343 109 Z M 343 72 "/>
</clipPath>
<clipPath id="clip2">
  <path d="M 358 123 L 372.570313 123 L 372.570313 154 L 358 154 Z M 358 123 "/>
</clipPath>
<clipPath id="clip3">
  <path d="M 364 165 L 372.570313 165 L 372.570313 179.550781 L 364 179.550781 Z M 364 165 "/>
</clipPath>
</defs>
<g id="surface1">
<path style=" stroke:none;fill-rule:nonzero;fill:rgb(7.798767%,23.498535%,53.29895%);fill-opacity:1;" d="M 293.101563 51.480469 C 292.390625 48.589844 292.46875 46.664063 291.832031 46.664063 C 291.515625 46.664063 291.425781 46.804688 291.339844 46.882813 C 289.28125 49.84375 287.601563 52.246094 281.984375 52.246094 C 276.476563 52.246094 272.066406 49.300781 272.066406 43.621094 C 272.066406 36.851563 281.105469 34.0625 286.46875 31.582031 C 291.039063 29.476563 292.136719 29.328125 292.136719 24.261719 C 292.136719 20.394531 290.636719 17.4375 285.914063 17.4375 C 278.308594 17.4375 281.429688 24.882813 276.238281 24.882813 C 274.46875 24.882813 273.28125 24.027344 273.28125 22.167969 C 273.28125 16.898438 281.359375 15.101563 287.507813 15.101563 C 293.191406 15.101563 298.058594 16.347656 298.058594 21.390625 L 298.058594 38.511719 C 298.058594 43.074219 297.828125 47.820313 300.304688 51.007813 Z M 284.953125 47.894531 C 289.753906 47.894531 292.136719 43.71875 292.136719 39.277344 L 292.136719 31.414063 L 287.824219 33.519531 C 281.914063 36.394531 278.789063 37.953125 278.789063 42.378906 C 278.789063 46.109375 281.359375 47.894531 284.953125 47.894531 "/>
<path style=" stroke:none;fill-rule:nonzero;fill:rgb(7.798767%,23.498535%,53.29895%);fill-opacity:1;" d="M 314.191406 42.550781 L 314.191406 19.289063 C 317.867188 18.8125 321.429688 17.785156 322.953125 15.367188 C 320.128906 15.621094 317.15625 15.75 314.191406 15.820313 L 314.191406 4.851563 L 308.59375 6.335938 L 308.265625 15.871094 C 306.992188 15.90625 305.746094 15.90625 304.503906 15.90625 L 304.503906 19.617188 L 308.265625 19.605469 L 308.265625 43.71875 C 308.265625 48.453125 310.175781 51.796875 315.460938 51.796875 C 318.496094 51.796875 322.253906 49.460938 322.339844 48.765625 L 322.660156 45.40625 C 321.777344 46.265625 319.230469 47.28125 317.796875 47.28125 C 314.585938 47.28125 314.191406 45.109375 314.191406 42.550781 "/>
<path style=" stroke:none;fill-rule:nonzero;fill:rgb(7.798767%,23.498535%,53.29895%);fill-opacity:1;" d="M 271.992188 100.203125 L 271.992188 76.933594 C 275.660156 76.472656 279.222656 75.433594 280.753906 73.03125 C 277.945313 73.285156 274.96875 73.398438 271.992188 73.476563 L 271.992188 62.507813 L 266.402344 64.003906 L 266.070313 73.539063 L 262.324219 73.539063 L 262.324219 77.277344 L 266.070313 77.269531 L 266.070313 101.367188 C 266.070313 106.09375 267.992188 109.445313 273.257813 109.445313 C 276.304688 109.445313 280.070313 107.105469 280.148438 106.417969 L 280.464844 103.074219 C 279.59375 103.917969 277.027344 104.949219 275.589844 104.949219 C 272.386719 104.949219 271.992188 102.765625 271.992188 100.203125 "/>
<path style=" stroke:none;fill-rule:nonzero;fill:rgb(7.798767%,23.498535%,53.29895%);fill-opacity:1;" d="M 207.84375 9.441406 C 202.398438 5.164063 197.839844 3.601563 191.671875 3.601563 C 179.273438 3.601563 172.464844 13.785156 172.464844 25.140625 C 172.464844 39.503906 179.113281 48.835938 194.542969 48.835938 C 196.621094 48.835938 198.480469 48.589844 200.46875 48.285156 C 201.273438 45.640625 201.273438 42.925781 201.273438 40.285156 L 201.273438 36.472656 C 201.273438 33.9375 201.25 31.09375 200.582031 28.730469 C 200.175781 27.261719 198.765625 27.261719 196.824219 26.285156 L 208.449219 26.285156 L 208.460938 44.230469 C 208.460938 46.261719 208.703125 49.070313 209.027344 51.011719 C 204.136719 51.800781 197.605469 52.246094 191.992188 52.246094 C 175.121094 52.246094 164.175781 45.023438 164.175781 27.519531 C 164.175781 8.730469 177.835938 0.183594 195.753906 0.183594 C 199.734375 0.183594 203.75 0.730469 207.84375 1.0625 L 207.84375 9.441406 "/>
<path style=" stroke:none;fill-rule:nonzero;fill:rgb(7.798767%,23.498535%,53.29895%);fill-opacity:1;" d="M 218.46875 28.78125 C 218.46875 23.261719 218.46875 17.90625 216.394531 16.273438 C 219.363281 16.203125 222.164063 15.871094 223.105469 15.871094 C 224.550781 15.871094 223.652344 19.773438 224.550781 19.773438 C 224.945313 19.773438 227.589844 15.101563 232.3125 15.101563 C 235.097656 15.101563 236.710938 16.203125 236.710938 18.050781 C 236.710938 19.550781 235.898438 20.628906 233.914063 20.628906 C 232.382813 20.628906 230.777344 20.394531 228.855469 20.394531 C 224.878906 20.394531 224.375 23.117188 224.375 26.519531 L 224.375 42.539063 C 224.375 45.40625 224.375 48.765625 225.839844 51.007813 L 217.03125 51.007813 C 218.46875 48.765625 218.46875 45.40625 218.46875 42.539063 L 218.46875 28.78125 "/>
<path style=" stroke:none;fill-rule:nonzero;fill:rgb(7.798767%,23.498535%,53.29895%);fill-opacity:1;" d="M 245.308594 28.621094 C 245.164063 30.097656 244.980469 31.351563 244.980469 32.984375 C 244.980469 40.210938 248.351563 47.128906 256.675781 47.128906 C 260.597656 47.128906 264.425781 45.574219 266.351563 43.476563 L 266.351563 44.332031 C 266.351563 48.4375 259.613281 52.246094 253.703125 52.246094 C 243.238281 52.246094 238.269531 43.074219 238.269531 33.675781 C 238.269531 23.566406 244.011719 15.101563 254.984375 15.101563 C 262.667969 15.101563 267.222656 20.011719 267.222656 25.058594 C 267.222656 28.621094 264.59375 28.621094 259.613281 28.621094 Z M 254.128906 26.28125 C 258.042969 26.28125 260.136719 26.28125 260.136719 23.347656 C 260.136719 20.46875 257.972656 17.4375 254.042969 17.4375 C 249.007813 17.4375 246.847656 22.167969 245.886719 26.28125 L 254.128906 26.28125 "/>
<path style=" stroke:none;fill-rule:nonzero;fill:rgb(7.798767%,23.498535%,53.29895%);fill-opacity:1;" d="M 172.925781 105.109375 L 182.519531 105.109375 C 187.460938 105.109375 192.589844 103.917969 196.347656 100.652344 L 194.90625 107.816406 C 192.734375 107.960938 190.105469 108.207031 187.226563 108.207031 L 163.914063 108.207031 C 165.675781 105.554688 165.914063 101.519531 165.914063 98.03125 L 165.914063 68.820313 C 165.914063 65.3125 165.914063 61.273438 164.175781 58.625 L 192.277344 58.625 L 192.589844 64.617188 C 189.78125 62.265625 185.472656 61.746094 180.757813 61.746094 L 172.925781 61.746094 L 173.765625 79.082031 C 179.9375 79.082031 185.953125 80.308594 192.09375 79.765625 C 189.320313 84.1875 179.878906 84.1875 174.914063 84.1875 L 172.925781 84.1875 L 172.925781 105.109375 "/>
<path style=" stroke:none;fill-rule:nonzero;fill:rgb(7.798767%,23.498535%,53.29895%);fill-opacity:1;" d="M 221.527344 108.660156 C 220.816406 105.804688 220.894531 103.851563 220.242188 103.851563 C 219.949219 103.851563 219.847656 104.007813 219.773438 104.078125 C 217.699219 107.039063 216.003906 109.445313 210.414063 109.445313 C 204.894531 109.445313 200.496094 106.503906 200.496094 100.835938 C 200.496094 94.058594 209.535156 91.28125 214.90625 88.78125 C 219.453125 86.6875 220.578125 86.527344 220.578125 81.484375 C 220.578125 77.582031 219.054688 74.652344 214.34375 74.652344 C 206.742188 74.652344 209.851563 82.082031 204.675781 82.082031 C 202.898438 82.082031 201.707031 81.242188 201.707031 79.378906 C 201.707031 74.097656 209.78125 72.300781 215.9375 72.300781 C 221.617188 72.300781 226.480469 73.539063 226.480469 78.601563 L 226.480469 95.699219 C 226.480469 100.28125 226.238281 105.007813 228.738281 108.203125 Z M 213.367188 105.109375 C 218.164063 105.109375 220.578125 100.898438 220.578125 96.453125 L 220.578125 88.617188 L 216.25 90.71875 C 210.347656 93.59375 207.226563 95.140625 207.226563 99.585938 C 207.226563 103.324219 209.78125 105.109375 213.367188 105.109375 "/>
<path style=" stroke:none;fill-rule:nonzero;fill:rgb(7.798767%,23.498535%,53.29895%);fill-opacity:1;" d="M 257.789063 98.339844 C 257.789063 105.710938 250.445313 109.445313 243.640625 109.445313 C 240.453125 109.445313 237.734375 108.8125 234.78125 107.742188 C 233.894531 107.421875 233.410156 107.105469 233.410156 106.050781 C 233.410156 104.164063 233.734375 102.304688 233.796875 100.375 C 236.285156 104.242188 238.292969 106.640625 243.578125 106.640625 C 248.285156 106.640625 251.078125 104.484375 251.078125 100.050781 C 251.078125 90.574219 235.242188 92.128906 235.242188 80.613281 C 235.242188 74.773438 239.886719 72.300781 247.40625 72.300781 C 249.804688 72.300781 252.289063 72.691406 254.691406 73.234375 C 254.914063 73.316406 255.726563 73.480469 255.726563 73.941406 C 255.726563 75.339844 255.636719 77.585938 255.5625 79.21875 C 252.441406 75.410156 250.84375 74.652344 247.164063 74.652344 C 244.039063 74.652344 241.160156 76.027344 241.160156 79.382813 C 241.160156 88.617188 257.789063 87.527344 257.789063 98.339844 "/>
<path style=" stroke:none;fill-rule:nonzero;fill:rgb(7.798767%,23.498535%,53.29895%);fill-opacity:1;" d="M 291.332031 85.816406 C 291.1875 87.296875 291.039063 88.539063 291.039063 90.167969 C 291.039063 97.402344 294.382813 104.316406 302.703125 104.316406 C 306.605469 104.316406 310.460938 102.765625 312.378906 100.652344 L 312.378906 101.519531 C 312.378906 105.648438 305.65625 109.445313 299.746094 109.445313 C 289.25 109.445313 284.296875 100.285156 284.296875 90.878906 C 284.296875 80.769531 290.054688 72.300781 300.996094 72.300781 C 308.695313 72.300781 313.230469 77.21875 313.230469 82.238281 C 313.230469 85.816406 310.605469 85.816406 305.65625 85.816406 Z M 300.046875 83.488281 C 303.960938 83.488281 306.058594 83.488281 306.058594 80.53125 C 306.058594 77.660156 303.902344 74.652344 299.980469 74.652344 C 294.925781 74.652344 292.773438 79.378906 291.8125 83.488281 L 300.046875 83.488281 "/>
<path style=" stroke:none;fill-rule:nonzero;fill:rgb(7.798767%,23.498535%,53.29895%);fill-opacity:1;" d="M 320.824219 85.984375 C 320.824219 80.457031 320.824219 75.082031 318.742188 73.480469 C 321.703125 73.394531 324.496094 73.078125 325.472656 73.078125 C 326.917969 73.078125 326.023438 76.964844 326.917969 76.964844 C 327.304688 76.964844 329.941406 72.300781 334.671875 72.300781 C 337.46875 72.300781 339.050781 73.394531 339.050781 75.257813 C 339.050781 76.738281 338.265625 77.832031 336.257813 77.832031 C 334.734375 77.832031 333.140625 77.585938 331.210938 77.585938 C 327.222656 77.585938 326.738281 80.308594 326.738281 83.726563 L 326.738281 99.71875 C 326.738281 102.609375 326.738281 105.957031 328.179688 108.207031 L 319.394531 108.207031 C 320.824219 105.957031 320.824219 102.609375 320.824219 99.71875 L 320.824219 85.984375 "/>
<g clip-path="url(#clip1)" clip-rule="nonzero">
<path style=" stroke:none;fill-rule:nonzero;fill:rgb(7.798767%,23.498535%,53.29895%);fill-opacity:1;" d="M 350.5625 73.078125 L 350.5625 75.808594 C 350.5625 76.417969 350.488281 77.046875 351.035156 77.046875 C 351.761719 77.046875 355.285156 72.300781 361.511719 72.300781 C 367.519531 72.300781 371.273438 75.179688 371.273438 82.40625 L 371.273438 99.8125 C 371.273438 102.695313 371.273438 106.050781 372.558594 108.203125 L 365.351563 108.203125 L 365.351563 86.914063 C 365.351563 81.945313 364.628906 76.511719 358.238281 76.511719 C 351.917969 76.511719 350.726563 82.023438 350.726563 87.296875 L 350.726563 99.8125 C 350.726563 102.695313 350.726563 106.050781 352.15625 108.203125 L 343.355469 108.203125 C 344.8125 106.050781 344.8125 102.695313 344.8125 99.8125 L 344.8125 81.304688 C 344.8125 78.132813 344.8125 75.082031 343.117188 73.539063 L 350.5625 73.078125 "/>
</g>
<path style=" stroke:none;fill-rule:nonzero;fill:rgb(88.198853%,2.398682%,7.499695%);fill-opacity:1;" d="M 115.371094 32.3125 C 115.371094 32.3125 115.5 39.972656 126.921875 35.503906 C 130.050781 34.265625 134.773438 32.9375 137.277344 33.546875 C 138.171875 33.730469 135.308594 31.09375 127.214844 34.308594 C 118.824219 37.632813 115.371094 32.3125 115.371094 32.3125 M 142.710938 19.550781 C 142.710938 19.550781 144.285156 18.609375 144.140625 15.824219 C 144.070313 14.269531 144.105469 13.269531 144.105469 13.269531 C 144.105469 13.269531 144.496094 13.210938 145.039063 12.738281 C 145.667969 12.210938 146.027344 11.660156 145.597656 10.792969 C 145.113281 9.796875 144.707031 11.082031 143.25 10.808594 C 141.824219 10.503906 139.464844 11.042969 140.367188 11.671875 C 141.226563 12.230469 143.144531 13.269531 143.144531 13.269531 C 143.144531 13.269531 143.285156 13.84375 143.285156 16.011719 C 143.285156 18.179688 142.710938 19.550781 142.710938 19.550781 M 128.464844 11.746094 L 129.402344 9.808594 C 129.402344 9.808594 127.84375 8.824219 125.941406 8.625 C 123.785156 8.386719 121.144531 9.769531 121.144531 9.769531 C 121.144531 9.769531 123.652344 9.308594 125.480469 9.867188 C 127.546875 10.488281 128.464844 11.746094 128.464844 11.746094 M 117.367188 65.644531 C 118.925781 67.636719 124.605469 71.0625 125.097656 67.304688 C 124.605469 69.769531 119.007813 65.460938 117.40625 62.695313 C 115.746094 59.835938 115.664063 57.300781 114.589844 56.992188 C 113.992188 56.824219 111.449219 59.285156 111.449219 64.027344 C 113.121094 60.761719 113.851563 59.285156 114.671875 60.980469 C 115.152344 61.976563 116.269531 64.210938 117.367188 65.644531 M 101.253906 62.945313 C 104.519531 68.355469 109.324219 68.652344 110 68.652344 C 109.324219 68.652344 103.597656 65.921875 100.839844 59.050781 C 99.339844 55.269531 98.960938 53.101563 98.960938 53.101563 C 97.433594 52.507813 97 59.765625 96.035156 59.765625 C 95.082031 59.765625 92.335938 57.300781 89.691406 51.667969 C 88.691406 49.535156 88.867188 45.511719 88.882813 40.195313 C 87.324219 46.683594 87.636719 49.785156 89.363281 54.609375 C 90.863281 58.820313 95.648438 63.191406 96.609375 63.15625 C 98.34375 63.101563 97.273438 57.378906 98.800781 57.972656 C 98.800781 57.972656 99.144531 59.496094 101.253906 62.945313 M 107.214844 9.058594 C 109.730469 8.464844 111.847656 10.589844 111.847656 10.589844 C 111.847656 10.589844 110.6875 7.125 106.832031 7.707031 C 102.996094 8.28125 101.4375 11.382813 103.1875 14.835938 C 104.910156 18.3125 107.996094 18.109375 107.996094 18.109375 C 107.996094 18.109375 107.996094 22.542969 109.539063 25.046875 C 111.070313 27.535156 113.589844 30.03125 113.589844 30.03125 C 113.589844 30.03125 110.6875 25.046875 110.308594 22.710938 C 109.921875 20.441406 109.921875 16.753906 109.921875 16.753906 C 109.921875 16.753906 106.070313 16.375 105.121094 14.257813 C 104.144531 12.140625 104.03125 9.796875 107.214844 9.058594 M 151.269531 98.902344 C 152.605469 101.097656 155.121094 104.972656 153.574219 107.367188 C 152.046875 109.773438 146.460938 108.511719 141.453125 107.921875 C 136.449219 107.367188 133.769531 108.039063 131.949219 108.039063 C 130.105469 108.039063 129.046875 106.6875 128.070313 105.164063 C 127.125 103.613281 126.921875 103.121094 127.007813 101.097656 C 127.125 99.09375 126.824219 100.25 124.515625 95.046875 C 122.21875 89.855469 119.816406 87.648438 118.175781 86.6875 C 116.527344 85.71875 116.820313 85.144531 117.007813 84.648438 C 117.207031 84.179688 117.867188 83.015625 116.332031 79.457031 C 114.804688 75.910156 113.652344 74.652344 113.652344 74.652344 C 110.851563 77.035156 103.445313 78.898438 103.445313 78.898438 C 103.445313 78.898438 103.445313 81.105469 104.800781 87.648438 C 105.953125 93.285156 108.152344 98.121094 109.03125 98.511719 C 109.890625 98.902344 112.746094 97.246094 114.953125 97.304688 C 118.488281 97.382813 118.636719 100.207031 119.421875 103.792969 C 120.183594 107.3125 119.214844 108.417969 116.9375 108.222656 C 114.601563 108.039063 104.894531 107.921875 100.941406 107.75 C 96.988281 107.554688 97.769531 106.792969 96.421875 105.253906 C 95.082031 103.691406 95.660156 101.488281 95.457031 100.332031 C 95.277344 99.171875 91.324219 92.257813 90.367188 90.816406 C 89.402344 89.367188 88.335938 89.367188 87.390625 88.207031 C 86.429688 87.058594 86.886719 85.71875 87.1875 84.648438 C 87.476563 83.601563 87.097656 81.484375 87.097656 81.484375 C 87.097656 81.484375 84.207031 81.628906 81.320313 81.628906 C 78.429688 81.628906 75.84375 81.183594 75.84375 81.183594 C 75.84375 81.183594 73.039063 83.789063 69.109375 85.144531 C 65.164063 86.492188 60.828125 87.339844 59.769531 87.933594 C 58.71875 88.511719 59.472656 89.75 60.636719 93.308594 C 61.785156 96.863281 63.816406 99.210938 63.816406 99.210938 L 66.695313 98.238281 C 68.714844 97.585938 70.445313 97.707031 71.410156 98.460938 C 73.257813 99.890625 74.691406 104.511719 74.480469 106.828125 C 74.285156 109.140625 71.121094 108.367188 63.429688 108.164063 C 55.734375 107.972656 54.660156 108.367188 53.410156 107.972656 C 52.167969 107.589844 51.585938 105.957031 51.484375 105.003906 C 51.390625 104.042969 51.972656 103.761719 49.570313 99.015625 C 47.1875 94.308594 47.460938 93.515625 45.328125 92.160156 C 43.214844 90.816406 43.121094 90.996094 42.835938 89.367188 C 42.222656 85.945313 44.761719 85.519531 47.367188 84.363281 C 49.957031 83.210938 51.207031 80.234375 51.207031 80.234375 L 48.605469 80.4375 C 48.605469 80.4375 46.011719 83.699219 38.019531 85.414063 C 30.023438 87.15625 25.328125 88.28125 22.003906 90.722656 C 20.183594 92.089844 17.640625 99.152344 17.640625 99.152344 C 17.640625 99.152344 18.59375 98.683594 20.902344 97.996094 C 23.207031 97.324219 23.699219 97.996094 25.621094 101.671875 C 27.542969 105.304688 26.78125 108.386719 23.207031 108.484375 C 19.640625 108.585938 20.214844 107.367188 13.386719 107.84375 C 6.570313 108.347656 5.550781 109.203125 4.167969 107.730469 C 3.101563 106.617188 3.382813 104.429688 3.398438 102.988281 C 3.4375 101.097656 4.6875 100.4375 5.617188 98.585938 C 6.167969 97.476563 8.007813 93.644531 9.167969 91.195313 C 11.042969 87.308594 11.28125 84.882813 11.566406 82.640625 C 11.714844 81.394531 14.0625 79.546875 15.992188 79.769531 C 20.121094 80.160156 22.339844 76.769531 23.984375 74.652344 C 25.621094 72.523438 27.433594 69.363281 27.433594 69.363281 C 27.433594 69.363281 19.570313 73.371094 9.902344 70.96875 C 0.0429688 68.511719 -1.820313 59.480469 1.542969 54.066406 C 4.308594 49.667969 11.128906 46.664063 17.792969 45.730469 C 25.507813 44.664063 30.179688 44.890625 30.941406 43.070313 C 31.292969 42.234375 29.351563 39.1875 30.417969 35.679688 C 31.355469 32.523438 32.933594 31.386719 35.332031 29.078125 C 37.730469 26.773438 37.453125 24.855469 37.453125 24.855469 C 37.453125 24.855469 42.757813 34.367188 39.855469 39.765625 C 34.835938 49.113281 23.390625 48.425781 16.757813 50.050781 C 10.125 51.683594 4.757813 55.792969 4.820313 59.875 C 4.96875 67.535156 20.148438 69.046875 24.453125 63.859375 C 29.667969 57.640625 34.101563 51.609375 51.023438 50.675781 C 65.246094 49.929688 68.714844 51.566406 79.394531 44.058594 C 80.632813 43.179688 81.730469 42.355469 82.707031 41.601563 C 82.433594 39.535156 82.480469 36.820313 83.335938 33.324219 C 84.609375 27.980469 87.765625 23.121094 87.371094 22.710938 C 86.980469 22.355469 84.878906 24.855469 84.285156 23.882813 C 83.710938 22.917969 86.832031 15.472656 89.878906 11.960938 C 94.894531 6.167969 100.273438 5.566406 101.046875 4.625 C 101.84375 3.667969 97.402344 4.421875 97.96875 3.46875 C 98.5625 2.507813 102.59375 0 111.847656 0 C 122.070313 0 119.558594 1.933594 123.019531 2.703125 C 126.488281 3.46875 129.777344 4.054688 131.496094 4.625 C 133.226563 5.199219 133.996094 6.941406 134.964844 7.53125 C 135.925781 8.097656 136.511719 7.910156 140.367188 8.28125 C 144.226563 8.660156 145.917969 9.683594 146.070313 10.792969 C 146.320313 12.625 146.148438 15.613281 145.34375 17.847656 C 144.636719 19.90625 142.101563 20.226563 142.101563 20.226563 C 142.101563 20.226563 139.40625 20.992188 134.574219 19.820313 C 129.777344 18.695313 128.222656 18.695313 128.222656 23.882813 C 128.222656 29.109375 129.378906 28.691406 135.160156 28.691406 C 140.941406 28.691406 142.289063 26.199219 143.25 26.199219 C 144.226563 26.199219 144.226563 27.355469 144.226563 29.261719 C 144.226563 31.226563 144.035156 33.140625 143.0625 33.917969 C 142.101563 34.691406 138.925781 33.792969 138.925781 33.792969 C 138.925781 33.792969 140.78125 36.378906 141.082031 38.050781 C 142.800781 48.183594 135.898438 54.832031 134.949219 54.6875 C 133.363281 54.453125 133.5625 47.597656 131.746094 48.964844 C 130.929688 49.585938 131.746094 53.710938 129.324219 57.378906 L 129.886719 61.945313 C 129.886719 61.945313 131.171875 73.695313 134.421875 84.363281 C 137.699219 95.046875 140.878906 97.34375 141.550781 98.425781 C 142.21875 99.488281 144.0625 98.03125 146.644531 97.265625 C 149.261719 96.488281 149.921875 96.6875 151.269531 98.902344 "/>
<path style=" stroke:none;fill-rule:nonzero;fill:rgb(88.198853%,2.398682%,7.499695%);fill-opacity:1;" d="M 133.425781 25.523438 C 133.425781 25.523438 135.007813 22.351563 137.925781 21.910156 C 140.8125 21.476563 143.476563 22.664063 146 21.871094 C 147.628906 21.371094 148.902344 20.628906 148.902344 20.628906 C 148.902344 20.628906 147.78125 23.367188 146.144531 24.660156 C 143.964844 26.394531 141.9375 26.121094 137.769531 25.097656 C 135.425781 24.515625 133.425781 25.523438 133.425781 25.523438 "/>
<path style=" stroke:none;fill-rule:nonzero;fill:rgb(38.398743%,38.398743%,37.998962%);fill-opacity:1;" d="M 97.347656 152.921875 L 97.347656 123.769531 L 101.324219 123.769531 L 101.324219 149.507813 L 111.777344 149.507813 L 111.777344 152.921875 "/>
<path style=" stroke:none;fill-rule:nonzero;fill:rgb(38.398743%,38.398743%,37.998962%);fill-opacity:1;" d="M 120.929688 131.453125 L 124.816406 131.453125 L 124.816406 152.921875 L 120.929688 152.921875 Z M 122.878906 127.917969 C 121.460938 127.917969 120.285156 126.816406 120.285156 125.382813 C 120.285156 124.007813 121.460938 122.882813 122.878906 122.882813 C 124.296875 122.882813 125.472656 123.964844 125.472656 125.382813 C 125.472656 126.75 124.296875 127.917969 122.878906 127.917969 "/>
<path style=" stroke:none;fill-rule:nonzero;fill:rgb(38.398743%,38.398743%,37.998962%);fill-opacity:1;" d="M 149.816406 124.769531 C 148.824219 124.425781 147.695313 124.300781 146.671875 124.300781 C 143.601563 124.300781 142.269531 126.023438 142.269531 129.828125 L 142.269531 131.453125 L 148.238281 131.453125 L 148.238281 134.488281 L 142.269531 134.488281 L 142.269531 152.921875 L 138.371094 152.921875 L 138.371094 134.488281 L 133.972656 134.488281 L 133.972656 131.453125 L 138.371094 131.453125 L 138.371094 129.855469 C 138.371094 123.960938 141.261719 121.144531 146.621094 121.144531 C 147.835938 121.144531 148.988281 121.273438 150.167969 121.535156 L 149.816406 124.769531 "/>
<path style=" stroke:none;fill-rule:nonzero;fill:rgb(38.398743%,38.398743%,37.998962%);fill-opacity:1;" d="M 164.253906 133.917969 C 161.441406 133.917969 159.449219 136.03125 159.011719 139.191406 L 169.035156 139.191406 C 169.121094 136.03125 167.273438 133.917969 164.253906 133.917969 M 172.878906 141.949219 L 158.855469 141.949219 C 158.664063 147.683594 161.054688 150.164063 165.636719 150.164063 C 167.824219 150.164063 170.164063 149.632813 171.871094 148.820313 L 172.234375 151.976563 C 170.164063 152.824219 167.652344 153.316406 164.976563 153.316406 C 158.378906 153.316406 154.820313 149.855469 154.820313 142.289063 C 154.820313 135.867188 158.308594 131.058594 164.410156 131.058594 C 170.464844 131.058594 173.003906 135.179688 173.003906 140.089844 C 173.003906 140.613281 172.964844 141.21875 172.878906 141.949219 "/>
<path style=" stroke:none;fill-rule:nonzero;fill:rgb(38.398743%,38.398743%,37.998962%);fill-opacity:1;" d="M 198.445313 131.453125 L 202.332031 131.453125 L 202.332031 152.921875 L 198.445313 152.921875 Z M 200.378906 127.917969 C 198.960938 127.917969 197.792969 126.816406 197.792969 125.382813 C 197.792969 124.007813 198.960938 122.882813 200.378906 122.882813 C 201.808594 122.882813 202.980469 123.964844 202.980469 125.382813 C 202.980469 126.75 201.808594 127.917969 200.378906 127.917969 "/>
<path style=" stroke:none;fill-rule:nonzero;fill:rgb(38.398743%,38.398743%,37.998962%);fill-opacity:1;" d="M 218.230469 153.316406 C 216.636719 153.316406 215.027344 153.191406 213.683594 152.921875 L 213.816406 149.464844 C 215.152344 149.902344 216.878906 150.203125 218.523438 150.203125 C 221.375 150.203125 223.296875 148.898438 223.296875 146.925781 C 223.296875 142.132813 213.335938 145.0625 213.335938 137.492188 C 213.335938 133.882813 216.3125 131.058594 221.941406 131.058594 C 223.203125 131.058594 224.746094 131.246094 226.035156 131.488281 L 225.945313 134.738281 C 224.605469 134.304688 223.042969 134.050781 221.636719 134.050781 C 218.792969 134.050781 217.359375 135.273438 217.359375 137.128906 C 217.359375 141.824219 227.382813 139.285156 227.382813 146.484375 C 227.382813 150.375 223.910156 153.316406 218.230469 153.316406 "/>
<path style=" stroke:none;fill-rule:nonzero;fill:rgb(38.398743%,38.398743%,37.998962%);fill-opacity:1;" d="M 274.304688 128.335938 C 271.886719 127.363281 269.203125 126.816406 266.535156 126.816406 C 260.542969 126.816406 255.40625 130.683594 255.40625 138.46875 C 255.40625 145.695313 259.640625 149.855469 266.191406 149.855469 C 268.121094 149.855469 269.785156 149.558594 271.328125 149.070313 L 271.328125 138.066406 L 275.261719 138.066406 L 275.261719 151.621094 C 272.371094 152.710938 268.839844 153.316406 265.632813 153.316406 C 256.824219 153.316406 251.164063 147.953125 251.164063 138.933594 C 251.164063 130.003906 257.117188 123.394531 266.925781 123.394531 C 269.695313 123.394531 272.316406 123.824219 274.917969 124.652344 L 274.304688 128.335938 "/>
<path style=" stroke:none;fill-rule:nonzero;fill:rgb(38.398743%,38.398743%,37.998962%);fill-opacity:1;" d="M 298.203125 134.871094 C 293.644531 134.09375 291.492188 137.421875 291.492188 144.285156 L 291.492188 152.921875 L 287.601563 152.921875 L 287.601563 131.453125 L 291.367188 131.453125 C 291.367188 132.792969 291.242188 134.785156 290.894531 136.5625 L 290.984375 136.5625 C 291.894531 133.585938 294.085938 130.589844 298.359375 131.058594 L 298.203125 134.871094 "/>
<path style=" stroke:none;fill-rule:nonzero;fill:rgb(38.398743%,38.398743%,37.998962%);fill-opacity:1;" d="M 315.066406 133.917969 C 312.261719 133.917969 310.277344 136.03125 309.835938 139.191406 L 319.851563 139.191406 C 319.9375 136.03125 318.082031 133.917969 315.066406 133.917969 M 323.710938 141.949219 L 309.664063 141.949219 C 309.484375 147.683594 311.863281 150.164063 316.457031 150.164063 C 318.644531 150.164063 320.972656 149.632813 322.695313 148.820313 L 323.058594 151.976563 C 320.972656 152.824219 318.464844 153.316406 315.792969 153.316406 C 309.183594 153.316406 305.65625 149.855469 305.65625 142.289063 C 305.65625 135.867188 309.140625 131.058594 315.238281 131.058594 C 321.28125 131.058594 323.824219 135.179688 323.824219 140.089844 C 323.824219 140.613281 323.785156 141.21875 323.710938 141.949219 "/>
<path style=" stroke:none;fill-rule:nonzero;fill:rgb(38.398743%,38.398743%,37.998962%);fill-opacity:1;" d="M 345.898438 143.027344 C 338.417969 143.027344 336.78125 145.320313 336.78125 147.257813 C 336.78125 149.074219 338.09375 150.234375 340.0625 150.234375 C 343.5625 150.234375 345.898438 146.789063 345.898438 143.414063 Z M 346.117188 152.921875 C 346.117188 151.398438 346.117188 149.855469 346.328125 148.640625 L 346.234375 148.640625 C 345.207031 151.277344 342.484375 153.316406 338.9375 153.316406 C 335.402344 153.316406 332.976563 151.398438 332.976563 148 C 332.976563 143.28125 337.765625 140.316406 345.898438 140.316406 L 345.898438 138.714844 C 345.898438 135.734375 344.726563 134.140625 341.199219 134.140625 C 339.167969 134.140625 336.574219 134.785156 334.714844 135.910156 L 334.328125 132.582031 C 336.402344 131.730469 338.984375 131.03125 341.839844 131.03125 C 348.007813 131.03125 349.777344 133.917969 349.777344 138.183594 L 349.777344 146.734375 C 349.777344 148.777344 349.828125 151.066406 349.871094 152.921875 L 346.117188 152.921875 "/>
<g clip-path="url(#clip2)" clip-rule="nonzero">
<path style=" stroke:none;fill-rule:nonzero;fill:rgb(38.398743%,38.398743%,37.998962%);fill-opacity:1;" d="M 368.429688 153.265625 C 364.035156 153.265625 362.683594 151.453125 362.683594 146.832031 L 362.683594 134.488281 L 358.28125 134.488281 L 358.28125 131.453125 L 362.683594 131.453125 L 362.683594 124.523438 L 366.585938 123.433594 L 366.585938 131.453125 L 372.566406 131.453125 L 372.566406 134.488281 L 366.585938 134.488281 L 366.585938 145.453125 C 366.585938 148.988281 367.234375 149.953125 369.640625 149.953125 C 370.632813 149.953125 371.707031 149.757813 372.566406 149.558594 L 372.566406 152.828125 C 371.375 153.097656 369.796875 153.265625 368.429688 153.265625 "/>
</g>
<path style=" stroke:none;fill-rule:nonzero;fill:rgb(38.398743%,38.398743%,37.998962%);fill-opacity:1;" d="M 132.097656 166.449219 C 131.863281 165.839844 131.695313 165.246094 131.554688 164.613281 L 131.519531 164.613281 C 131.367188 165.214844 131.195313 165.851563 130.949219 166.480469 L 129.363281 170.855469 L 133.699219 170.855469 Z M 135.171875 175.058594 L 134.15625 172.183594 L 128.933594 172.183594 L 127.902344 175.058594 L 126.195313 175.058594 L 130.667969 162.761719 L 132.523438 162.761719 L 137.058594 175.058594 L 135.171875 175.058594 "/>
<path style=" stroke:none;fill-rule:nonzero;fill:rgb(38.398743%,38.398743%,37.998962%);fill-opacity:1;" d="M 155.015625 175.054688 L 155.015625 169.246094 C 155.015625 167.988281 154.734375 167.191406 153.535156 167.191406 C 152.253906 167.191406 151.011719 168.566406 151.011719 170.742188 L 151.011719 175.054688 L 149.386719 175.054688 L 149.386719 169.214844 C 149.386719 168.109375 149.164063 167.191406 147.921875 167.191406 C 146.519531 167.191406 145.375 168.65625 145.375 170.742188 L 145.375 175.054688 L 143.726563 175.054688 L 143.726563 166 L 145.324219 166 C 145.324219 166.523438 145.285156 167.355469 145.175781 167.90625 L 145.21875 167.917969 C 145.746094 166.632813 146.902344 165.832031 148.367188 165.832031 C 150.269531 165.832031 150.804688 167.15625 150.863281 167.863281 C 151.253906 167.027344 152.214844 165.832031 153.96875 165.832031 C 155.667969 165.832031 156.65625 166.757813 156.65625 168.78125 L 156.65625 175.054688 L 155.015625 175.054688 "/>
<path style=" stroke:none;fill-rule:nonzero;fill:rgb(38.398743%,38.398743%,37.998962%);fill-opacity:1;" d="M 163.414063 167.046875 C 162.246094 167.046875 161.40625 167.941406 161.21875 169.261719 L 165.4375 169.261719 C 165.480469 167.941406 164.6875 167.046875 163.414063 167.046875 M 167.070313 170.421875 L 161.148438 170.421875 C 161.078125 172.847656 162.070313 173.894531 164 173.894531 C 164.929688 173.894531 165.910156 173.664063 166.648438 173.316406 L 166.789063 174.652344 C 165.910156 175.015625 164.851563 175.210938 163.730469 175.210938 C 160.945313 175.210938 159.449219 173.769531 159.449219 170.566406 C 159.449219 167.859375 160.941406 165.839844 163.484375 165.839844 C 166.050781 165.839844 167.113281 167.554688 167.113281 169.644531 C 167.113281 169.847656 167.101563 170.117188 167.070313 170.421875 "/>
<path style=" stroke:none;fill-rule:nonzero;fill:rgb(38.398743%,38.398743%,37.998962%);fill-opacity:1;" d="M 181.273438 175.054688 L 181.273438 169.246094 C 181.273438 167.988281 180.988281 167.191406 179.8125 167.191406 C 178.503906 167.191406 177.285156 168.566406 177.285156 170.742188 L 177.285156 175.054688 L 175.65625 175.054688 L 175.65625 169.214844 C 175.65625 168.109375 175.421875 167.191406 174.171875 167.191406 C 172.789063 167.191406 171.660156 168.65625 171.660156 170.742188 L 171.660156 175.054688 L 170.019531 175.054688 L 170.019531 166 L 171.601563 166 C 171.601563 166.523438 171.554688 167.355469 171.460938 167.90625 L 171.480469 167.917969 C 172.019531 166.632813 173.183594 165.832031 174.625 165.832031 C 176.546875 165.832031 177.0625 167.15625 177.113281 167.863281 C 177.511719 167.027344 178.476563 165.832031 180.226563 165.832031 C 181.953125 165.832031 182.917969 166.757813 182.917969 168.78125 L 182.917969 175.054688 L 181.273438 175.054688 "/>
<path style=" stroke:none;fill-rule:nonzero;fill:rgb(38.398743%,38.398743%,37.998962%);fill-opacity:1;" d="M 190.644531 167.1875 C 189.015625 167.1875 188.164063 169.101563 188.164063 170.671875 L 188.164063 173.664063 C 188.640625 173.804688 189.113281 173.890625 189.757813 173.890625 C 191.492188 173.890625 192.636719 172.847656 192.636719 170.246094 C 192.636719 168.300781 191.992188 167.1875 190.644531 167.1875 M 189.644531 175.179688 C 188.367188 175.179688 187.492188 175.078125 186.511719 174.816406 L 186.511719 161.75 L 188.164063 161.75 L 188.164063 166.144531 C 188.164063 166.679688 188.113281 167.378906 187.980469 167.839844 L 188.027344 167.859375 C 188.527344 166.582031 189.648438 165.835938 191.019531 165.835938 C 193.144531 165.835938 194.359375 167.324219 194.359375 170.085938 C 194.359375 173.273438 192.546875 175.179688 189.644531 175.179688 "/>
<path style=" stroke:none;fill-rule:nonzero;fill:rgb(38.398743%,38.398743%,37.998962%);fill-opacity:1;" d="M 200.347656 167.046875 C 199.171875 167.046875 198.339844 167.941406 198.152344 169.261719 L 202.378906 169.261719 C 202.414063 167.941406 201.625 167.046875 200.347656 167.046875 M 204.007813 170.421875 L 198.074219 170.421875 C 197.996094 172.847656 199 173.894531 200.933594 173.894531 C 201.855469 173.894531 202.851563 173.664063 203.574219 173.316406 L 203.734375 174.652344 C 202.851563 175.015625 201.796875 175.210938 200.660156 175.210938 C 197.871094 175.210938 196.378906 173.769531 196.378906 170.566406 C 196.378906 167.859375 197.851563 165.839844 200.441406 165.839844 C 202.980469 165.839844 204.042969 167.554688 204.042969 169.644531 C 204.042969 169.847656 204.019531 170.117188 204.007813 170.421875 "/>
<path style=" stroke:none;fill-rule:nonzero;fill:rgb(38.398743%,38.398743%,37.998962%);fill-opacity:1;" d="M 211.410156 167.429688 C 209.496094 167.105469 208.578125 168.503906 208.578125 171.40625 L 208.578125 175.054688 L 206.933594 175.054688 L 206.933594 166 L 208.527344 166 C 208.527344 166.574219 208.476563 167.394531 208.332031 168.160156 L 208.359375 168.160156 C 208.75 166.898438 209.671875 165.632813 211.480469 165.839844 L 211.410156 167.429688 "/>
<path style=" stroke:none;fill-rule:nonzero;fill:rgb(38.398743%,38.398743%,37.998962%);fill-opacity:1;" d="M 221.820313 167.207031 C 220.507813 167.207031 219.269531 168.199219 219.269531 170.457031 C 219.269531 172.625 220.164063 173.835938 221.820313 173.835938 C 223.167969 173.835938 224.335938 172.765625 224.335938 170.460938 C 224.335938 168.40625 223.5 167.207031 221.820313 167.207031 M 221.617188 175.210938 C 219.15625 175.210938 217.546875 173.785156 217.546875 170.601563 C 217.546875 167.953125 219.238281 165.839844 221.960938 165.839844 C 224.269531 165.839844 226.035156 167.105469 226.035156 170.382813 C 226.035156 173.101563 224.304688 175.210938 221.617188 175.210938 "/>
<path style=" stroke:none;fill-rule:nonzero;fill:rgb(38.398743%,38.398743%,37.998962%);fill-opacity:1;" d="M 234.121094 163.195313 C 233.714844 163.039063 233.242188 162.96875 232.792969 162.96875 C 231.507813 162.96875 230.925781 163.707031 230.925781 165.320313 L 230.925781 166 L 233.445313 166 L 233.445313 167.269531 L 230.925781 167.269531 L 230.925781 175.054688 L 229.296875 175.054688 L 229.296875 167.269531 L 227.4375 167.269531 L 227.4375 166 L 229.296875 166 L 229.296875 165.328125 C 229.296875 162.839844 230.519531 161.644531 232.769531 161.644531 C 233.285156 161.644531 233.769531 161.710938 234.277344 161.8125 L 234.121094 163.195313 "/>
<path style=" stroke:none;fill-rule:nonzero;fill:rgb(38.398743%,38.398743%,37.998962%);fill-opacity:1;" d="M 243.210938 175.191406 C 241.351563 175.191406 240.78125 174.4375 240.78125 172.476563 L 240.78125 167.273438 L 238.921875 167.273438 L 238.921875 166 L 240.78125 166 L 240.78125 163.058594 L 242.421875 162.621094 L 242.421875 166 L 244.9375 166 L 244.9375 167.273438 L 242.421875 167.273438 L 242.421875 171.90625 C 242.421875 173.402344 242.691406 173.785156 243.722656 173.785156 C 244.128906 173.785156 244.574219 173.71875 244.9375 173.632813 L 244.9375 175.015625 C 244.453125 175.125 243.796875 175.191406 243.210938 175.191406 "/>
<path style=" stroke:none;fill-rule:nonzero;fill:rgb(38.398743%,38.398743%,37.998962%);fill-opacity:1;" d="M 253.433594 175.054688 L 253.433594 169.199219 C 253.433594 167.941406 253.09375 167.191406 251.882813 167.191406 C 250.390625 167.191406 249.339844 168.6875 249.339844 170.707031 L 249.339844 175.054688 L 247.695313 175.054688 L 247.695313 161.75 L 249.339844 161.75 L 249.339844 166.03125 C 249.339844 166.617188 249.289063 167.367188 249.152344 167.839844 L 249.199219 167.859375 C 249.703125 166.617188 250.839844 165.832031 252.34375 165.832031 C 254.425781 165.832031 255.082031 167.105469 255.082031 168.707031 L 255.082031 175.054688 L 253.433594 175.054688 "/>
<path style=" stroke:none;fill-rule:nonzero;fill:rgb(38.398743%,38.398743%,37.998962%);fill-opacity:1;" d="M 261.828125 167.046875 C 260.621094 167.046875 259.804688 167.941406 259.613281 169.261719 L 263.851563 169.261719 C 263.875 167.941406 263.097656 167.046875 261.828125 167.046875 M 265.464844 170.421875 L 259.539063 170.421875 C 259.472656 172.847656 260.476563 173.894531 262.40625 173.894531 C 263.34375 173.894531 264.3125 173.664063 265.050781 173.316406 L 265.199219 174.652344 C 264.3125 175.015625 263.277344 175.210938 262.140625 175.210938 C 259.351563 175.210938 257.851563 173.769531 257.851563 170.566406 C 257.851563 167.859375 259.335938 165.839844 261.902344 165.839844 C 264.4375 165.839844 265.515625 167.554688 265.515625 169.644531 C 265.515625 169.847656 265.503906 170.117188 265.464844 170.421875 "/>
<path style=" stroke:none;fill-rule:nonzero;fill:rgb(38.398743%,38.398743%,37.998962%);fill-opacity:1;" d="M 277.753906 164.054688 C 275.707031 164.054688 273.886719 165.714844 273.886719 168.796875 C 273.886719 171.738281 275.140625 173.738281 277.734375 173.738281 C 279.738281 173.738281 281.640625 172.152344 281.640625 168.964844 C 281.640625 165.832031 280.226563 164.054688 277.753906 164.054688 M 277.605469 175.25 C 273.886719 175.25 272.089844 172.765625 272.089844 169.039063 C 272.089844 164.945313 274.730469 162.566406 277.945313 162.566406 C 281.253906 162.566406 283.421875 164.714844 283.421875 168.773438 C 283.421875 172.867188 280.789063 175.25 277.605469 175.25 "/>
<path style=" stroke:none;fill-rule:nonzero;fill:rgb(38.398743%,38.398743%,37.998962%);fill-opacity:1;" d="M 291.1875 175.191406 C 287.234375 175.191406 285.589844 172.675781 285.589844 169.214844 C 285.589844 165.472656 287.460938 162.648438 291.601563 162.648438 C 292.554688 162.648438 293.515625 162.8125 294.398438 163.019531 L 294.21875 164.554688 C 293.265625 164.273438 292.347656 164.121094 291.425781 164.121094 C 288.617188 164.121094 287.425781 166.25 287.425781 168.957031 C 287.425781 171.976563 288.730469 173.703125 291.574219 173.703125 C 292.472656 173.703125 293.597656 173.453125 294.339844 173.09375 L 294.511719 174.570313 C 293.597656 174.953125 292.4375 175.191406 291.1875 175.191406 "/>
<path style=" stroke:none;fill-rule:nonzero;fill:rgb(38.398743%,38.398743%,37.998962%);fill-opacity:1;" d="M 299.722656 169.34375 C 299.511719 169.34375 298.882813 169.34375 298.578125 169.367188 L 298.578125 173.648438 C 298.882813 173.703125 299.410156 173.738281 300.160156 173.738281 C 302.148438 173.738281 303.03125 172.765625 303.03125 171.429688 C 303.03125 169.824219 301.628906 169.34375 299.722656 169.34375 M 300.242188 164.054688 C 299.679688 164.054688 299.066406 164.0625 298.578125 164.085938 L 298.578125 168.066406 C 298.90625 168.074219 299.242188 168.074219 299.695313 168.074219 C 301.71875 168.074219 302.78125 167.273438 302.78125 165.925781 C 302.78125 164.828125 302.21875 164.054688 300.242188 164.054688 M 300.039063 175.113281 C 299.300781 175.113281 298.089844 175.078125 296.902344 175.054688 L 296.902344 162.761719 C 297.789063 162.742188 299.046875 162.71875 300.519531 162.71875 C 303.214844 162.71875 304.503906 163.8125 304.503906 165.644531 C 304.503906 166.941406 303.632813 168.109375 302.320313 168.503906 L 302.320313 168.566406 C 304.035156 168.839844 304.78125 170.085938 304.78125 171.375 C 304.78125 172.847656 303.867188 175.113281 300.039063 175.113281 "/>
<path style=" stroke:none;fill-rule:nonzero;fill:rgb(38.398743%,38.398743%,37.998962%);fill-opacity:1;" d="M 312.671875 175.191406 C 308.714844 175.191406 307.078125 172.675781 307.078125 169.214844 C 307.078125 165.472656 308.933594 162.648438 313.082031 162.648438 C 314.023438 162.648438 315.003906 162.8125 315.867188 163.019531 L 315.703125 164.554688 C 314.746094 164.273438 313.835938 164.121094 312.902344 164.121094 C 310.097656 164.121094 308.898438 166.25 308.898438 168.957031 C 308.898438 171.976563 310.210938 173.703125 313.066406 173.703125 C 313.964844 173.703125 315.082031 173.453125 315.820313 173.09375 L 316.007813 174.570313 C 315.066406 174.953125 313.910156 175.191406 312.671875 175.191406 "/>
<path style=" stroke:none;fill-rule:nonzero;fill:rgb(38.398743%,38.398743%,37.998962%);fill-opacity:1;" d="M 332.378906 164.6875 C 331.359375 164.285156 330.230469 164.035156 329.105469 164.035156 C 326.574219 164.035156 324.402344 165.6875 324.402344 168.957031 C 324.402344 172.003906 326.203125 173.769531 328.941406 173.769531 C 329.777344 173.769531 330.472656 173.632813 331.121094 173.449219 L 331.121094 168.785156 L 332.796875 168.785156 L 332.796875 174.503906 C 331.566406 174.953125 330.070313 175.214844 328.710938 175.214844 C 325.003906 175.214844 322.621094 172.964844 322.621094 169.132813 C 322.621094 165.390625 325.136719 162.589844 329.261719 162.589844 C 330.429688 162.589844 331.550781 162.792969 332.636719 163.128906 L 332.378906 164.6875 "/>
<path style=" stroke:none;fill-rule:nonzero;fill:rgb(38.398743%,38.398743%,37.998962%);fill-opacity:1;" d="M 340.773438 167.429688 C 338.867188 167.105469 337.953125 168.503906 337.953125 171.40625 L 337.953125 175.054688 L 336.316406 175.054688 L 336.316406 166 L 337.898438 166 C 337.898438 166.574219 337.84375 167.394531 337.699219 168.160156 L 337.738281 168.160156 C 338.113281 166.898438 339.035156 165.632813 340.847656 165.839844 L 340.773438 167.429688 "/>
<path style=" stroke:none;fill-rule:nonzero;fill:rgb(38.398743%,38.398743%,37.998962%);fill-opacity:1;" d="M 346.476563 167.207031 C 345.175781 167.207031 343.929688 168.199219 343.929688 170.457031 C 343.929688 172.625 344.816406 173.835938 346.476563 173.835938 C 347.835938 173.835938 349 172.765625 349 170.460938 C 349 168.40625 348.140625 167.207031 346.476563 167.207031 M 346.289063 175.210938 C 343.828125 175.210938 342.222656 173.785156 342.222656 170.601563 C 342.222656 167.953125 343.898438 165.839844 346.640625 165.839844 C 348.933594 165.839844 350.714844 167.105469 350.714844 170.382813 C 350.714844 173.101563 348.972656 175.210938 346.289063 175.210938 "/>
<path style=" stroke:none;fill-rule:nonzero;fill:rgb(38.398743%,38.398743%,37.998962%);fill-opacity:1;" d="M 359.277344 175.054688 C 359.277344 174.511719 359.339844 173.695313 359.4375 173.144531 L 359.394531 173.136719 C 358.851563 174.402344 357.75 175.25 356.195313 175.25 C 354.140625 175.25 353.492188 173.949219 353.492188 172.328125 L 353.492188 166 L 355.109375 166 L 355.109375 171.855469 C 355.109375 173.113281 355.476563 173.875 356.65625 173.875 C 358.160156 173.875 359.261719 172.351563 359.261719 170.355469 L 359.261719 166 L 360.871094 166 L 360.871094 175.054688 L 359.277344 175.054688 "/>
<g clip-path="url(#clip3)" clip-rule="nonzero">
<path style=" stroke:none;fill-rule:nonzero;fill:rgb(38.398743%,38.398743%,37.998962%);fill-opacity:1;" d="M 368.59375 167.1875 C 366.945313 167.1875 366.105469 169.101563 366.105469 170.675781 L 366.105469 173.664063 C 366.582031 173.804688 367.105469 173.890625 367.695313 173.890625 C 369.445313 173.890625 370.570313 172.847656 370.570313 170.246094 C 370.570313 168.300781 369.941406 167.1875 368.59375 167.1875 M 367.632813 175.148438 C 367.085938 175.148438 366.644531 175.148438 366.105469 175.054688 L 366.105469 179.550781 L 364.457031 179.550781 L 364.457031 166 L 366.050781 166 C 366.050781 166.515625 366.003906 167.324219 365.894531 167.839844 L 365.953125 167.859375 C 366.441406 166.59375 367.53125 165.835938 368.988281 165.835938 C 371.101563 165.835938 372.289063 167.324219 372.289063 170.085938 C 372.289063 173.316406 370.570313 175.148438 367.632813 175.148438 "/>
</g>
</g>
</svg>
